<svg width="300" height="300" viewBox="0 0 300 300" fill="none" xmlns="http://www.w3.org/2000/svg">
<path d="M0 18.8854L103.357 0L121.582 107.104L18.2247 125.99L0 18.8854Z" fill="#E2E8F0"/>
<path d="M73.4662 18.8854L176.824 0L195.048 107.104L91.6909 125.99L73.4662 18.8854Z" fill="#E2E8F0"/>
<path d="M178.418 18.8854L281.775 0L300 107.104L196.643 125.99L178.418 18.8854Z" fill="#E2E8F0"/>
<path d="M0 105.891L103.357 87.0052L121.582 194.109L18.2247 212.995L0 105.891Z" fill="#E2E8F0"/>
<path d="M73.4662 105.891L176.824 87.0052L195.048 194.109L91.6909 212.995L73.4662 105.891Z" fill="#E2E8F0"/>
<path d="M178.418 105.891L281.775 87.0052L300 194.109L196.643 212.995L178.418 105.891Z" fill="#E2E8F0"/>
<path d="M0 192.896L103.357 174.01L121.582 281.115L18.2247 300L0 192.896Z" fill="#E2E8F0"/>
<path d="M73.4662 192.896L176.824 174.01L195.048 281.115L91.6909 300L73.4662 192.896Z" fill="#E2E8F0"/>
<path d="M178.418 192.896L281.775 174.01L300 281.115L196.643 300L178.418 192.896Z" fill="#E2E8F0"/>
</svg>
