<svg width="300" height="300" viewBox="0 0 300 300" fill="none" xmlns="http://www.w3.org/2000/svg">
<ellipse cx="147.719" cy="107.708" rx="30.3594" ry="107.708" fill="#CBD5E1"/>
<path fill-rule="evenodd" clip-rule="evenodd" d="M227.376 294.855C251.376 286.366 257.206 254.331 240.398 223.303C223.59 192.274 190.508 174.002 166.508 182.49C142.508 190.978 136.678 223.013 153.486 254.042C170.294 285.071 203.376 303.343 227.376 294.855ZM219.321 280.572C237.321 274.205 241.694 250.179 229.088 226.908C216.481 203.636 191.67 189.932 173.67 196.298C155.67 202.665 151.297 226.691 163.903 249.962C176.51 273.234 201.321 286.938 219.321 280.572Z" fill="#DC2626"/>
<path fill-rule="evenodd" clip-rule="evenodd" d="M133.492 185.556C157.492 194.045 163.322 226.08 146.514 257.108C129.706 288.137 96.6241 306.409 72.624 297.921C48.6238 289.432 42.7936 257.398 59.6017 226.369C76.4099 195.34 109.492 177.068 133.492 185.556ZM125.437 199.839C143.437 206.206 147.81 230.232 135.203 253.503C122.597 276.775 97.786 290.479 79.7859 284.113C61.7858 277.746 57.4131 253.72 70.0193 230.449C82.6254 207.177 107.437 193.473 125.437 199.839Z" fill="#DC2626"/>
</svg>
